<svg xmlns="http://www.w3.org/2000/svg" viewBox="0 0 189 33"><defs><style>.cls-1{fill:none;stroke:#d6d6d6;stroke-miterlimit:10;stroke-width:0.25px;}.cls-2{fill:#a7b9c9;}</style></defs><title>logo2</title><path d="M18.62,11.63c0,5.88-3.12,9.12-8.59,9.12H6.67v9.84h-4v-28H10C15.5,2.59,18.62,5.91,18.62,11.63Zm-4.11,0c0-3.44-1.48-5.2-4.52-5.2H6.67V16.91H10C13,16.91,14.51,15.23,14.51,11.63Z"/><path d="M21.23,22.35V10.83c0-5.68,3.16-8.76,8.08-8.76,5.07,0,8.07,3,8.31,8.6h-4C33.39,7.39,32,5.91,29.27,5.91c-2.36,0-3.92,1.56-3.92,4.92V22.35c0,3.32,1.56,4.88,4,4.88,2.72,0,4.16-1.52,4.44-4.72h4c-.28,5.52-3.28,8.56-8.43,8.56C24.43,31.07,21.23,28,21.23,22.35Z"/><path d="M57.06,11.63c0,5.88-3.12,9.12-8.59,9.12H45.11v9.84h-4v-28h7.4C53.94,2.59,57.06,5.91,57.06,11.63Zm-4.12,0c0-3.44-1.48-5.2-4.51-5.2H45.11V16.91h3.32C51.46,16.91,52.94,15.23,52.94,11.63Z"/><path d="M69.14,25H61.75l-1.28,5.64H56.23l7-28h4.36l7,28h-4.2Zm-.84-3.76-1.76-7.52c-.39-1.84-.83-4.52-1-6h-.12c-.2,1.48-.6,4.16-1,6l-1.72,7.52Z"/><path d="M83.71,20.43H81.19V30.59h-4v-28h7.23c5.36,0,8.4,3.2,8.4,8.76,0,4.36-1.84,7.36-5,8.52l6.08,10.72H89.34Zm-2.52-3.84h3.12c2.83,0,4.31-1.84,4.31-5.16s-1.48-5-4.27-5H81.19Z"/><path d="M110.3,6.43h-5.84V30.59h-4.11V6.43h-5.8V2.59H110.3Z"/><path d="M111.35,22.91h4.11c0,2.88,1.6,4.28,4.08,4.28,2.68,0,4-1.6,4-3.84,0-5.56-11.71-5.88-11.71-14.2,0-4,3-7.08,7.67-7.08s7.68,3.08,7.8,7.84h-4.12c-.08-2.68-1.48-4-3.64-4s-3.6,1.28-3.6,3.28c0,5.48,11.76,5.48,11.76,14.16,0,4.16-2.92,7.72-8.16,7.72C114.58,31.11,111.39,28,111.35,22.91Z"/><line class="cls-1" x1="131" y1="2" x2="131" y2="31"/><path class="cls-2" d="M138.55,11.41a2.21,2.21,0,0,1-2.37,2.51h-.92v2.71h-1.11V8.92h2A2.22,2.22,0,0,1,138.55,11.41Zm-1.14,0c0-.95-.4-1.43-1.24-1.43h-.91v2.88h.91C137,12.86,137.41,12.4,137.41,11.41Z"/><path class="cls-2" d="M142.23,10.78v1.06a1.73,1.73,0,0,0-.71-.13c-.73,0-1.19.5-1.19,1.44v3.48h-1.07v-5.8H140l.12.7a1.62,1.62,0,0,1,1.49-.83A1.74,1.74,0,0,1,142.23,10.78Z"/><path class="cls-2" d="M142.65,14.56V12.88a2,2,0,1,1,4.08,0v1.68a2,2,0,1,1-4.08,0Zm3,0V12.88c0-.81-.36-1.16-1-1.16s-1,.35-1,1.16v1.68c0,.81.36,1.16,1,1.16S145.65,15.37,145.65,14.56Z"/><path class="cls-2" d="M149,10.51v.32h1.12v1H149v4.83H148V11.8h-.84v-1H148v-.32a1.78,1.78,0,0,1,1.95-2h.34v1h-.34C149.31,9.47,149,9.78,149,10.51Z"/><path class="cls-2" d="M154.73,14.81a2,2,0,1,1-4-.24V12.84a2,2,0,1,1,4,0v1.29h-2.95v.44c0,.79.34,1.15.92,1.15s.89-.28,1-.91Zm-3-2v.49h1.9v-.49c0-.79-.35-1.14-1-1.14S151.75,12,151.75,12.83Z"/><path class="cls-2" d="M155.26,14.84h1.06a.9.9,0,0,0,1,.94c.56,0,.88-.28.88-.73,0-1.16-2.85-.77-2.85-2.75a1.65,1.65,0,0,1,1.87-1.62,1.79,1.79,0,0,1,1.93,1.85H158.1a.8.8,0,0,0-.88-.88c-.5,0-.81.26-.81.66,0,1.1,2.86.67,2.86,2.75a1.7,1.7,0,0,1-1.93,1.71A1.92,1.92,0,0,1,155.26,14.84Z"/><path class="cls-2" d="M159.68,14.84h1a.9.9,0,0,0,1,.94c.56,0,.88-.28.88-.73,0-1.16-2.85-.77-2.85-2.75a1.65,1.65,0,0,1,1.87-1.62,1.78,1.78,0,0,1,1.93,1.85h-1.05a.8.8,0,0,0-.88-.88c-.5,0-.81.26-.81.66,0,1.1,2.86.67,2.86,2.75a1.7,1.7,0,0,1-1.92,1.71A1.91,1.91,0,0,1,159.68,14.84Z"/><path class="cls-2" d="M164.31,9.19a.64.64,0,0,1,.67-.68.66.66,0,0,1,.68.68.67.67,0,0,1-.68.67A.65.65,0,0,1,164.31,9.19Zm.14,1.64h1.07v5.8h-1.07Z"/><path class="cls-2" d="M166.48,14.56V12.88a2.05,2.05,0,1,1,4.09,0v1.68a2.05,2.05,0,1,1-4.09,0Zm3,0V12.88c0-.81-.36-1.16-1-1.16s-1,.35-1,1.16v1.68c0,.81.37,1.16,1,1.16S169.49,15.37,169.49,14.56Z"/><path class="cls-2" d="M175.47,13v3.65H174.4V13c0-.95-.25-1.34-.81-1.34s-1,.48-1,1.34v3.59h-1.07v-5.8h.76l.11.65a1.59,1.59,0,0,1,1.44-.8C174.85,10.68,175.47,11.4,175.47,13Z"/><path class="cls-2" d="M180.23,12.77v3.86h-.86l-.08-.56a1.41,1.41,0,0,1-1.29.7,1.68,1.68,0,0,1-1.78-1.8c0-1.17.81-1.78,2.1-1.78h.85v-.42c0-.68-.25-1.06-.84-1.06a.81.81,0,0,0-.88.77h-1.07a1.81,1.81,0,0,1,2-1.8C179.6,10.68,180.23,11.44,180.23,12.77Zm-1.06,1.31h-.85c-.65,0-1,.31-1,.89a.81.81,0,0,0,.92.85.9.9,0,0,0,.95-1Z"/><path class="cls-2" d="M181.31,8.66h1.07v8h-1.07Z"/><path class="cls-2" d="M183,14.84h1.06a.9.9,0,0,0,1,.94c.56,0,.88-.28.88-.73,0-1.16-2.85-.77-2.85-2.75,0-1,.73-1.62,1.87-1.62a1.78,1.78,0,0,1,1.92,1.85h-1a.8.8,0,0,0-.88-.88c-.51,0-.82.26-.82.66,0,1.1,2.86.67,2.86,2.75a1.7,1.7,0,0,1-1.92,1.71A1.91,1.91,0,0,1,183,14.84Z"/><path class="cls-2" d="M133.87,22.19a.68.68,0,1,1,1.35,0,.66.66,0,0,1-.68.67A.65.65,0,0,1,133.87,22.19Zm.14,1.64h1.07v5.8H134Z"/><path class="cls-2" d="M140.12,26v3.65h-1.07V26c0-.95-.25-1.34-.81-1.34s-1,.48-1,1.34v3.59h-1.07v-5.8h.76l.11.65a1.59,1.59,0,0,1,1.44-.8C139.49,23.68,140.12,24.4,140.12,26Z"/><path class="cls-2" d="M147.29,26.09v3.54h-1.07v-3.5c0-1-.27-1.43-.81-1.43s-1,.48-1,1.34v3.59h-1.07V21.68h1.07v2.71a1.49,1.49,0,0,1,1.28-.71C146.71,23.68,147.29,24.45,147.29,26.09Z"/><path class="cls-2" d="M152.05,25.77v3.86h-.87l-.07-.56a1.41,1.41,0,0,1-1.29.7A1.68,1.68,0,0,1,148,28c0-1.17.81-1.78,2.1-1.78H151v-.42c0-.68-.26-1.06-.84-1.06a.81.81,0,0,0-.88.77H148.2a1.81,1.81,0,0,1,2-1.8C151.42,23.68,152.05,24.44,152.05,25.77ZM151,27.08h-.85c-.65,0-1,.31-1,.89a.81.81,0,0,0,.92.85.9.9,0,0,0,1-1Z"/><path class="cls-2" d="M156.12,23.78v1.06a1.73,1.73,0,0,0-.71-.13c-.73,0-1.19.5-1.19,1.44v3.48h-1.07v-5.8h.76l.12.7a1.63,1.63,0,0,1,1.49-.83A1.74,1.74,0,0,1,156.12,23.78Z"/><path class="cls-2" d="M160.53,21.66v8h-.77l-.07-.54a1.73,1.73,0,0,1-1.31.67c-1.09,0-1.84-.84-1.84-2.26V25.91c0-1.4.72-2.23,1.84-2.23a1.58,1.58,0,0,1,1.12.48v-2.5Zm-1,4.25c0-.75-.36-1.21-.95-1.21s-.93.37-.93,1.21V27.5c0,.86.35,1.25.93,1.25s.95-.4.95-1.24Z"/><path class="cls-2" d="M168,23.83l-1.38,5.8h-1.15l-.51-2.11a22.78,22.78,0,0,1-.39-2.28h-.05a18.17,18.17,0,0,1-.39,2.28l-.5,2.11h-1.15L161,23.83h1.11l.52,2.59c.12.65.27,1.6.33,2h0c.07-.47.22-1.36.36-2l.53-2.44h1.14l.52,2.44c.14.68.3,1.57.37,2h0c.05-.4.21-1.35.33-2l.52-2.59Z"/><path class="cls-2" d="M172.05,25.77v3.86h-.87l-.07-.56a1.42,1.42,0,0,1-1.29.7A1.68,1.68,0,0,1,168,28c0-1.17.81-1.78,2.1-1.78H171v-.42c0-.68-.25-1.06-.83-1.06a.81.81,0,0,0-.88.77H168.2a1.81,1.81,0,0,1,2-1.8C171.41,23.68,172.05,24.44,172.05,25.77ZM171,27.08h-.84c-.65,0-1,.31-1,.89a.82.82,0,0,0,.93.85.89.89,0,0,0,.94-1Z"/><path class="cls-2" d="M176.12,23.78v1.06a1.73,1.73,0,0,0-.71-.13c-.73,0-1.19.5-1.19,1.44v3.48h-1.07v-5.8h.76l.12.7a1.62,1.62,0,0,1,1.49-.83A1.74,1.74,0,0,1,176.12,23.78Z"/><path class="cls-2" d="M180.59,27.81a2,2,0,1,1-4.05-.24V25.84a1.92,1.92,0,0,1,2-2.16,1.94,1.94,0,0,1,2,2.16v1.29h-3v.44c0,.79.34,1.15.92,1.15s.89-.28,1-.91Zm-3-2v.49h1.9v-.49c0-.79-.35-1.14-1-1.14S177.61,25,177.61,25.83Z"/></svg>
